<svg xmlns="http://www.w3.org/2000/svg" xmlns:xlink="http://www.w3.org/1999/xlink" class="card" preserveAspectRatio="none" viewBox="-106 -164.5 212 329"><defs><symbol id="b" preserveAspectRatio="xMinYMid" viewBox="-500 -500 1000 1000"><path fill="none" stroke="#000" stroke-linecap="square" stroke-miterlimit="1.5" stroke-width="80" d="M-270 460h160m-90-10L0-460l200 910m-90 10h160m-390-330h240"/></symbol><symbol id="a" preserveAspectRatio="xMinYMid" viewBox="-600 -600 1200 1200"><path d="M0-500c100 250 355 400 355 685a150 150 0 0 1-300 0 10 10 0 0 0-20 0c0 200 50 215 95 315h-260c45-100 95-115 95-315a10 10 0 0 0-20 0 150 150 0 0 1-300 0c0-285 255-435 355-685"/></symbol></defs><rect width="211" height="328" x="-105.5" y="-164" fill="#fff" stroke="#000" rx="12" ry="12"/><use xlink:href="#a" width="205.2" height="205.2" x="-102.6" y="-102.6"/><path fill="#fff" d="m0-40.01 10.5 10.5L0-19l-10.5-10.5M0-37l-7.5 7.5L0-22l7.5-7.5M12-28l3 3-1.5 1.5-3-3M18-22l1.5 1.5L15-16l-4.5-4.5L9-19l4.5 4.5L9-10l-1.5-1.5L6-10l-1.5-1.5L3-10l-1.5-1.5L3-13l-1.5-1.5L-3-10l3 3 1.5-1.5L3-7l1.5-1.5L6-7l1.5-1.5L9-7 7.5-5.5 9-4 4.5.5 3-1 1.5.5 3 2 1.5 3.5 0 2l-3 3 1.5 1.5L0 5l1.5 1.5 3-3L6 5 4.5 6.5 6 8 4.5 9.5 6 11l3-3 1.5 1.5-3 3L9 14l-1.5 1.5L3 11l-3 3-1.5-1.5L-3 14l1.5 1.5L-3 17l3 3.01-1.5 1.5-4.5-4.5 3-3-1.5-1.5-3 3L-12 11l1.5-1.5L-12 8l-1.5 1.5-3-3L-12 2-13.5.5-18 5l-1.5-1.5 6-6L-12-1l1.5-1.5L-9-1l1.5-1.5L-9-4l1.5-1.5L-9-7l1.5-1.51L-6-7l1.5-1.5L-6-10l3-3-1.5-1.5L-6-13l-3-3-1.5 1.5 3 3L-9-10l-4.5-4.5 3-3L-12-19l-3 3-3-3 1.5-1.5L-18-22l3-3 3 3-1.5 1.5L-12-19l3-3-4.5-4.5L-12-28l6 6-1.5 1.5L-6-19l-1.5 1.5 3 3L-3-16l-1.5-1.5L-3-19l1.5 1.5L-3-16l1.5 1.5L0-16l1.5 1.5L3-16l-1.5-1.5L3-19l1.5 1.5L3-16l1.5 1.5L6-16l1.5 1.5L9-16l-4.5-4.5L9-25l1.5 1.5L9-22l1.5 1.5L12-22l3 3m6 0L31.52-8.5 21.01 2 10.5-8.5M21-16l-7.5 7.5L21-1l7.5-7.5M0-34l4.5 4.5L0-25l-4.5-4.5M21-13l4.5 4.5L21-4l-4.5-4.5m-9-6L6-13l1.5 1.5L9-13M6-7 4.5-5.5 6-4l1.5-1.5M12-4 16.5.5 15 2l-4.5-4.5M18 2l1.5 1.5-3 3L15 5M-9-19l-1.5 1.5L-9-16l1.5-1.5M3-7 1.5-5.5 3-4l1.5-1.5M-15-22l-1.5 1.5L-15-19l1.5-1.5M9-1l4.5 4.5L12 5l-1.5-1.5L9 5 7.5 3.5 9 2 7.5.5M0-4l-1.5 1.5L0-1l1.5-1.5M-3-4l-1.5 1.5L-3-1l1.5-1.5M-3-1-4.5.5-3 2-1.5.5M-21-19l10.5 10.5L-21 2-31.52-8.5m10.5-7.5-7.5 7.5L-21-1l7.5-7.5M-6-1-7.5.5-6 2-4.5.5M-9-1l-3 3 1.5 1.5 3-3m6.01 6L-3 8l3 3 1.5-1.5M-21-13l4.5 4.5L-21-4l-4.5-4.5m18 12-3 3 3 3L-6 8l-1.5-1.5L-6 5m1.5 4.5L-6 11l1.5 1.5L-3 11m6 3 1.5 1.5L3 17l-1.5-1.5"/><use xlink:href="#b" width="32" height="32" x="-100.4" y="-152.5"/><use xlink:href="#a" width="26.769" height="26.769" x="-97.784" y="-115.5"/><g transform="rotate(180)"><use xlink:href="#b" width="32" height="32" x="-100.4" y="-152.5"/><use xlink:href="#a" width="26.769" height="26.769" x="-97.784" y="-115.5"/></g></svg>