<svg xmlns="http://www.w3.org/2000/svg" class="card" preserveAspectRatio="none" viewBox="-106 -164.5 212 329"><defs><symbol id="h" preserveAspectRatio="xMinYMid" viewBox="-500 -500 1000 1000"><path fill="none" stroke="green" stroke-linecap="square" stroke-miterlimit="1.5" stroke-width="80" d="M-285-460h200m-100 0v920m-100 0h200M85-460h200m-100 20-355 595M85 460h200m-100-20L-10-70"/></symbol><symbol id="a" preserveAspectRatio="xMinYMid" viewBox="-600 -600 1200 1200"><path fill="green" d="M30 150c5 235 55 250 100 350h-260c45-100 95-115 100-350a10 10 0 0 0-20 0 210 210 0 1 1-74-201 10 10 0 0 0 14-14 230 230 0 1 1 220 0 10 10 0 0 0 14 14 210 210 0 1 1-74 201 10 10 0 0 0-20 0"/></symbol><symbol id="g" preserveAspectRatio="none" viewBox="0 0 1300 2000"><path fill="none" stroke="#44f" stroke-linecap="round" stroke-linejoin="round" stroke-width="3" d="M1205 585.2V501m0 163v-78.8m0 150.9v-72m0-187.4V140m30 728.5V170m-10 693V160m-10 696.6V150m-10 699.2v-52.5M1195 230v-11m0 66.7V230m0 140.2V343m0 97v-70m5.6 534c3.9 4.9 4.6 9.6 2.4 23.8m2 7.1c3.9 4.9 6.7 14 2.5 24.4m-4-1.2c3.8 4.8 4.6 15.2.8 23.7m-4.5 8c4 4.8 3.7 14.4.1 22.5m40.1-105.1q2.1 5.8 0 10m.6 22q2.1 5.8 0 10m-2.5 18.2q2.1 5.8 0 10m-1.5 16.7q2.1 5.8 0 10m-42.8-64.8c-16.7.6-13.8 30.6-13.8 30.6M480 305a41 41 0 0 1 35-20c15 0 30 20 30 20m85 2.1s15.6-23.5 32.6-23.7a45 45 0 0 1 34.4 15.2M620 315c5 15 14.8 31.9 40 30m-190-20c-3.3 17.6 35 25 35 25m13.9-44.2q1 3.6 1.1 7.8c0 11.8-7.3 21.4-16.2 21.4s-16.3-9.6-16.3-21.4q.1-6.3 2.5-11.3m178.3-4.7a27 27 0 0 1 2.3 11.2c0 11.8-7.2 21.4-16.2 21.4s-16.2-9.6-16.2-21.4q0-5.6 2-10.1M560 515c15-10 35-5 40 0"/><use width="90" height="90" href="#a" transform="rotate(5 -8852.8 10163.2)"/><use width="90" height="90" href="#a" transform="rotate(15 -2081.4 3732.7)"/><use width="90" height="90" href="#a" transform="rotate(25 -735.5 2458.8)"/></symbol><symbol id="f" preserveAspectRatio="none" viewBox="0 0 1300 2000"><path fill="none" stroke="#44f" stroke-linecap="round" stroke-linejoin="round" stroke-width="6" d="M522.9 3.5c9.3 67.9 64 63.4 67.8 108.8 3.4 41-51.7 45.5-55 4.6-2.1-27.7 29.3-30 31.4-2.6 1.1 13.6-18.5 15.3-19.6 1.6M523 3.5c1.5 68.5-53.2 73.1-49.8 118.6 3 41 58 36.4 54.8-4.6-2.1-27.6-33.5-24.7-31.3 2.6 1 13.7 20.7 12 19.6-1.6M803.5 0c-1.6 68.4 60 74.4 56.2 119.8-3.4 40.9-65.7 35-62-6 2.5-27.6 37.9-23.8 35.4 3.4-1.2 13.7-23.3 11.6-22.1-2M803.5 0c-10.6 67.6-72.3 61.8-76.7 107.1-3.9 41 58.4 46.8 62 6 2.5-27.7-33-30.7-35.4-3.4-1.2 13.6 21 15.7 22.2 2m106.2 45.7 3.4-3.7c13.5-15.6 21-36.2 23-60.2A226 226 0 0 0 970 71.8m-129.2 80.8c27.8-11.6 43.9-36.2 40.8-82C970 57.4 978 28 1016.1 4.7M384.6 83.2a104 104 0 0 0 36.9 17.8c3.3 10.6 6.9 23 14.4 36.8a87 87 0 0 0 14.8 19.6m40-4.4c-38-17.6-37.2-48.5-49.8-77.4-32 1.7-70.4-38.2-104.5-75.8m275 145.4c10.9-14.5 19-32.2 23-52.8A80 80 0 0 0 659 75a80 80 0 0 0 23.6 19 128 128 0 0 0 17.7 50.5M661 0c-6.2 34.6-15.1 66.1-51 71.5-2.1 36.7-16.6 60-38.3 75.4m162.7-1.5c-16.5-16.3-26.5-38.8-26.6-71C672.4 67 665.3 35 661.1 0m358.3.2c-89.1 123.2-107.6 170.5-125.5 227.5M331.3.6c68.3 101.8 100 158.6 125.9 225M446.3 199c173.6-21 316.2-17 456.5 2M457 225.5a1698 1698 0 0 1 436.8 2.2M428.1 160c187.3-23.8 340.5-19.3 490.6 2M0 771.2c113.2-105.4 248.2-193.7 401.5-228.5m753.6 66.8L959.5 538M1300 662.7l-55-20.1M924.4 538.3l-204.8 98.6-167.3-75.3m-8.1 29.3L720 670l218.6-105.2M566 650l154.6 69.5 164-79M578 688.4l143.2 64.4 140.1-67.5M647 757.4l78.8 48.4 76.6-48m-153.4 51 81.4 50.2 74-47.6m-153 59.3 83.8 41.3 71.5-45.3m-6.2-152.2 7.7 189.4M626 709.9 589 730m58 27.4-45.7 26m47.7 25.3-37.6 24m40 37.9L621 884.9m181.4-127 28.8 8.2m-24.4 100.4 4.6 2.3m-6.9-57.5 14.7 6M605.8 960h-6.5m101.4 0h-6.5M460 960V718.5m-19.1 205.8a125 125 0 0 1-125 125 125 125 0 0 1-125-125 125 125 0 0 1 125-125 125 125 0 0 1 125 125m520.6-385.4C816 693.8 799 865.2 808.2 1040m17.5 0c-9.4-175.3 7-342.1 153.7-494.6m-29.6 410.1c-5.9-133.3 18.3-257 125.3-375m-76 371.2c-6.7-129.5 16.7-240.2 127-352.5M974.3 951c-5.8-130.4 18.4-247 126.2-361.3m-423 410.2a27.5 27.5 0 0 1-27.5 27.5 27.5 27.5 0 0 1-27.5-27.5 27.5 27.5 0 0 1 27.5-27.5 27.5 27.5 0 0 1 27.5 27.5m14.6-34c16.9-40.2-11.9-60.2-42.1-60.8-30.2.6-59 20.6-42 60.7-45-34.5-65.4 2.3-65.7 34.1.3 31.8 20.7 68.6 65.7 34-17 40.2 11.8 60.2 42 60.8 30.2-.6 59-20.6 42-60.7 45 34.5 65.4-2.3 65.7-34.1-.3-31.8-20.7-68.6-65.7-34M498.7 562.8c41.3 84 67.2 185.9 87.8 299.4-30.2-83.7-76.7-146.8-136-190.5-57-42.2-124.9-66-199.2-76M196.2 960h-33.5M140 659.4V940m-40-252.2V900m1115 155a25 25 0 0 1 10 20 25 25 0 0 1-25 25 25 25 0 0 1-25-25 25 25 0 0 1 14.3-22.6m-10.2 9.8c-23-7.1-74.1-30-74.1-92.2 0-65 45-75 55-75 20 0 34.1 26.6 34.1 46.6 0 40-39.1 33.8-39.1 3.4 0-20 10-30 10-30l-30 20m125 100a47.5 20 0 0 1-47.5 20 47.5 20 0 0 1-47.5-20 47.5 20 0 0 1 47.5-20 47.5 20 0 0 1 47.5 20m-66.1-95.6a83 83 0 0 1 26.1-9.4c70-15 59.8 26.3 15 30-21.7 1.8-36-.2-43.2-4m66.4-2.5c25.3 6.4 10 30-24 31.1-50.5 1.7-60.5-15.4-33.4-25.7m46.7 24c31.4 4 17.3 31-17.1 32.2-56.7 2-59.4-22.6-13.2-30.7m-31.2-71c3.4-5.5 14.3-11.3 32.4-15.1 70-15 59.8 26.2 15 30-21 1.7-35-.1-42.5-3.7m-33.8 32.7c5 20-12.1 67.7-12.1 67.7m10-151.6V180l45-45 45 45v693.4M1105 860c0-20 40-32.7 40 0 0 7.5-10 7.5-10 0 0-5-10-5.1-10 5-.2 35 65-10 75-20 10 10 75.3 55 75 20 0-10.1-10-10-10-5 0 7.5-10 7.5-10 0 0-32.7 40-20 40 0 0 50-85 27.6-95 15-10 12.6-95 35-95-15m95.4-14.4c2-27.8 7.8-71.4 7.3-90.9-.7-25-10.7-33.9-11.3-53.9s17.5-51.4 16.8-76.3c-.7-25-15.3-53.3-15.9-73.3s9.4-45.2 8.8-65.2-17-55.9-17.6-75.9 14.5-64.5 14-84.5-11.9-50.1-12.3-65c-.4-15 13.3-62.5 13-77.5-.5-15-2.7-33.4-3.2-48.1 0 15.3 1.7 33.8 1.7 48.8s-15 62-15 77 10.5 45.4 10.5 65.4-16.3 64.1-16.3 84.1 15.6 56.3 15.6 76.3-10.6 45-10.6 65 13.8 48.7 13.8 73.7-18.8 55.9-18.8 75.9 9.8 29.1 9.8 54.1c0 23.3-10.2 80.9-10.7 104.9M203.4 977.8C289 956.3 350.7 955.6 431 972M279.8 804.7q-.7 41.6-.4 82.7a453 453 0 0 0-87.1 18.5m158.4-101.6q3 40.5 4.8 81a506 506 0 0 1 82.2 11.8m-220.5 103c76.1-18.4 129.9-19 201.3-5M254.6 815.4l-.2 50.2a487 487 0 0 0-54.5 11.9m228.3-8a538 538 0 0 0-48.8-7.4q-1.2-23.6-2.8-47.2M330 880a15 15 0 0 1-15 15 15 15 0 0 1-15-15 15 15 0 0 1 15-15 15 15 0 0 1 15 15m0-45a15 15 0 0 1-15 15 15 15 0 0 1-15-15 15 15 0 0 1 15-15 15 15 0 0 1 15 15m0 90a15 15 0 0 1-15 15 15 15 0 0 1-15-15 15 15 0 0 1 15-15 15 15 0 0 1 15 15m-50 0a15 15 0 0 1-15 15 15 15 0 0 1-15-15 15 15 0 0 1 15-15 15 15 0 0 1 15 15m-45 10a15 15 0 0 1-15 15 15 15 0 0 1-15-15 15 15 0 0 1 15-15 15 15 0 0 1 15 15m145-10a15 15 0 0 1-15 15 15 15 0 0 1-15-15 15 15 0 0 1 15-15 15 15 0 0 1 15 15m45 5a15 15 0 0 1-15 15 15 15 0 0 1-15-15 15 15 0 0 1 15-15 15 15 0 0 1 15 15M285.2 803.2a30.7 27.5 0 0 1 0-.7A30.7 27.5 0 0 1 316 775a30.7 27.5 0 0 1 30.6 27.5 30.7 27.5 0 0 1 0 .7M303.3 778c-3.1-14.3-13.9-52-38.3-48-24 4-41.6 59-20 70 17 8.6 16-46.9 35-45 9.4 1 13.6 21.5 14.7 28m9.4-5.9zm21.8-.6c1.5-26 5.7-51.7 14.1-76.5l-25-30-25 30a290 290 0 0 1 14.1 77.1m21.8-.5zm9.7 5c1.4-7.7 5.7-25.7 14.4-26.6 19-1.9 18 53.6 35 45 21.6-11 4-66-20-70s-34.8 32.5-38.2 47.2M177.6 945h-38.5m37-15H140m36.2-15H140m38-15h-38m41.6-15H140m47.1-15H140m54.6-15H140m64.6-15H140m77.8-15H140m93.3-15H140m82.9-15H140m80.2-15H140m81.8-15H140m86.5-15H140m320 195h-5.8m5.8-15h-4.4m4.4-15h-4.4m4.4-15h-6.3m6.3-15h-9.8m9.8-15h-15.3m15.3-15h-22.8m22.8-15h-32.8m32.8-15h-46m46-15h-63.2m63.2-15h-52.9m52.9-15h-50.2m50.2-15h-51.8m51.8-15h-56.4m896.4 290h-41.6M1245 830l55-18.3M865.5 536.8c25.6 3.8 49.3-7 49.1-33.2a28 28 0 0 0-37.9-27M886 538c25.6 3.8 49.3-7 49-33.3a28 28 0 0 0-36.4-27.5M906 538c25.6 3.8 49.3-7 49-33.3a28 28 0 0 0-37.8-27M921 538c25.6 3.8 49.3-7 49.1-33.3a28 28 0 0 0-35.9-27.7m6.8 61c25.6 3.8 49.3-7 49-33.3a28 28 0 0 0-37.8-27M961 538c25.6 3.8 49.3-7 49.1-33.3a28 28 0 0 0-37.9-27M981 538c25.6 3.8 49.3-7 49.1-33.3a28 28 0 0 0-37.9-27M754.9 214.8C813.3 335.1 782 428.4 783 467.3c2 77.7 112 92.7 111.6 36.3-.2-35-49.6-38.6-49.6-8.6-.6 16.6 31.3 20.6 25 0m-97-279.1c58.2 119.8 37.2 213.2 38.2 252 .8 32.4 23.4 43.3 49.5 41m-69.7-292c57.8 119.3 39.2 212.3 40.2 251 .4 16.3 6.4 27.2 15.5 33.7m-35.7-283c47.5 82 34.4 176.1 41.5 260.7m-22.4-259c47.7 79.4 37.6 170.4 49.9 254.7m-31.6-252.9c45.9 80.1 39.2 178.3 59.1 252.8m-40.4-250.6c45 80.3 39.3 181.4 67.9 251.1m-49-248.9c44.7 81.2 39.4 189 76.5 250.2m-64.9-260.2C949.2 300.1 951.8 432 990 475m-215.5 86.2c29.7 4 64.7-12.7 70.5-24.2m-90-322c91.4 218.5-34 227.8-31 300.9 1 20.1 11 29.1 24.3 33.7m31.7-1.2c21.5 5.2 48.5-2.6 66-11.3m-55.6-155.4c-9.3 48-51.7 73.1-48.8 123.2.6 11.3 7.6 16.1 11.4 23.1m36.7-131.5c-10.5 31-33.5 50.4-31 92.9 3.1 53.5 45.3 53.9 77.6 45.1m-48-123c-8.9 19.6-20 35.2-18.2 68.5 2.6 44.8 31.6 55.4 60 52.6M700 505c-4.6 71.2 80 80 80 40 0-30-50-20-30 5m-67-39c0 30 24.8 77.8 51.1 54.6M666 517c0 35 22.6 70.9 49.4 55.7M649 523c0 30 16 62 46.4 53.2M632 529c5 30 13 56 45.5 49M615 535c10 30 15 40 39.6 44M575 535c-10 23.8-15.4 26.9-40 30m23-34.8c-5 23.8-15.5 35.3-48 29.8m31-34.5c0 23.8-30.6 41.5-61 34.5m27-44c0 23.8-28.1 58.8-54.4 40.4m37.4-45.2c10 55.5-95 58.8-96 14-1-40.2 56-35.2 56-5.2 0 23.6-40.8 30.2-40 5 .3-8.2 10-15 20-10m135 40c20 25 50 5 50-20m-91-14.3c0 20.2-20.5 37.9-45.3 38.6m-15.2-334.4c-12 40.5 6.5 47.2 6.5 100.1 0 55-65 45-65 5 0-30 40-25 40 0 0 18.4-30 20-30 5s15-10 15-10m26.5-100.2C442 269.4 449.7 297.5 445 332m-15.2 78.7s-15-5-15 10 30 13.4 30-5c0-25-44.1-30.4-44.1-.4 0 40 64.4 44.7 65-5 .3-25.7-5.6-30.3 1.1-67.7-16.7 27.4.2 63.4-22.6 77.8M465 405c19 89.5 2.8 125.1-30 135m30-265s20-20 40-20 27.5 6 32.5 6.3c5.6.3 12.5-6.3 17.5-11.3v10s-12 4.7-17 4.7-26.1-5.8-34.2-6.3c-4-.3-32.3 8-38.8 16.6m275 10s-32.9-33.3-52.9-33.3-49.3 8.5-54.3 8.8c-5.5.3-17.8-.5-22.8-10.5v10s17.4 3.8 22.4 3.8 50.2-9.2 56-8.7c15.8 1.3 45 21.3 51.6 29.9m-185-25s15 15 15 20c0 20-11.7 30.4-11.7 50.4S545 390 545.4 398.7c.2 5 14.6 11.3 19.6 11.3s5 20 5 20m35-55c25 5 29 36.3 10 30-45-15-45 10-12.5-2.5M530 460v10l5-5zm115 0v10l-5-5zm-110 5c10 0 15-10 25-10s15 5 20 5 16.6-7.1 21.6-7.1S625 465 640 465m-75 20c5.9 12.4 30 15 35 0M470 310c10-5 20-10 35.8-9.2S535 325 550 325c-25 0-30 10-45 10s-25-5-35-10m150-10s20-20 35-20 50 20 60 20c-22.3 0-44.8 15-60 15-20 0-35-15-35-15M495 430c5.8 1.4 15-12.7 0-12.4-22.6.3-14.3 33.4 9.5 33.4 14.6 0 30.5-19 45.5-21v-10c-30 10-25 25-45 30m185-15c-12.4-5-19.7-21.5 2.4-23.2C715 410 710 450 667.3 451c-21.6.5-35-21-67.3-21v-10c52.1 5 37 25 66.5 30m91.4 550a107.9 96.6 0 0 1-107.9 96.5 107.9 96.6 0 0 1-107.9-96.5A107.9 96.6 0 0 1 650 903.5a107.9 96.6 0 0 1 107.9 96.5M533.2 565.5c44.8 97.4 70.4 213.4 91.4 340.7M721 752.7l17 192m-92.6-226 7.3 184.9M552 960H435.6m370.7 0H748m0 0 59.2-37M202 621c182.6 10.7 322.2 96.3 373.6 309m178.6 45h51.2m-312.9 0h52.3"/></symbol><symbol id="e" preserveAspectRatio="none" viewBox="0 0 1300 2000"><path d="M673 185a1851 1851 0 0 0-226.7 14.2l10.7 26.2a1698 1698 0 0 1 437 2.2l8.8-26.5c-74.6-10-149.7-16-229.9-16M401.4 542.8a712 712 0 0 0-149.7 52.6c74 10.4 141.7 34.2 198.8 76.4 59.3 43.7 105.8 106.8 136 190.5C566 748.8 540 647 498.7 563l-73.7-8Zm537.2 22L720 670l-175.8-79.1L566 650l154.6 69.5 164-79zm162 25C992.6 704 968.4 820.7 974.2 951l24.8.6c-6.7-129.5 16.7-240.2 127-352.6Zm144.4 52.5V830l55-18.3V662.6ZM140 659.4c-13.7 9.2-40 28.4-40 28.4V900a25 25 0 0 1 25 25q0 7.6-4.2 13c5 1.3 12 3.9 19.5 7.5l-.3-5.5ZM1050 787c-4 0-4 6 0 6h75c4 0 4-6 0-6zm-27.5 25-1.1 6H1140v-6zm-4.1 23.5-1.3 9h77.3l7.2-9zm-3 25-.8 9h76.5l-1-9zm-1.7 25.5-.6 18h98.7l-13.7-18zm-.7 31 .2 6h86.4l3-6zm.5 20 14.8 6h64.6l1.4-6zm44.6 20 8.8 6h23.4l.4-6zm25.1 20 5.5 6h2l-.5-6zm-725.1 6.7a3 3 0 0 0-1.6.5 73 73 0 0 1-40.6 12 73 73 0 0 1-37.1-9.9 3 3 0 1 0-3 5.2 79 79 0 0 0 40 10.8c16.5 0 31.6-4.8 44-13.1a3 3 0 0 0-1.7-5.6m33 3.7a3 3 0 0 0-2.2 1 97 97 0 0 1-73 33 97 97 0 0 1-69.5-29.2 3 3 0 1 0-4.3 4.2 103 103 0 0 0 73.8 31 103 103 0 0 0 77.5-35 3 3 0 0 0-2.2-5"/></symbol><symbol id="d" preserveAspectRatio="none" viewBox="0 0 1300 2000"><path fill="#44f" d="M1200 135c0 15.3 1.7 33.8 1.7 48.8s-15 62-15 77 10.5 45.4 10.5 65.4-16.3 64.1-16.3 84.1 15.6 56.3 15.6 76.3-10.6 45-10.6 65 13.8 48.7 13.8 73.7-18.8 55.9-18.8 75.9 9.8 29.1 9.8 54.1c0 23.3-10.2 80.9-10.7 104.9l20.4-14.6c2-27.8 7.8-71.4 7.3-90.9-.7-25-10.7-33.9-11.3-53.9s17.5-51.4 16.8-76.3c-.7-25-15.3-53.3-15.9-73.3s9.4-45.2 8.8-65.2-17-55.9-17.6-75.9 14.5-64.5 14-84.5-11.9-50.1-12.3-65c-.4-15 13.3-62.5 13-77.5-.5-15-2.7-33.4-3.2-48.1M652.3 294a10 17.5 0 0 0-10 17.5 10 17.5 0 0 0 10 17.5 10 17.5 0 0 0 10-17.5 10 17.5 0 0 0-10-17.5m-150 5.2a10 17.5 0 0 0-10 17.5 10 17.5 0 0 0 10 17.5 10 17.5 0 0 0 10-17.5 10 17.5 0 0 0-10-17.5M550 420c-30 10-25 25-45 30l-.5 1c14.6 0 30.5-19 45.5-21Zm50 0v10c32.3 0 45.7 21.5 67.3 21l-.8-1c-29.5-5-14.4-25-66.5-30m526 179c-110.2 112.5-133.6 223.2-127.1 352.6 49.8 5.8 90.7 41 104.7 88.2l33.5.1A87 87 0 0 1 1105 970c0-65 45-75 55-75 10.7 0 19.7 7.7 25.9 18.1 3.5-5.2 14.4-11 32.5-14.8 66.7-14.3 60.6 22.5 20.5 29 37-3.5 38.9 15.3 19.5 26.1 21.3 5.6 13.4 23.6-10.7 29.4 31.2 4.1 17.1 31-17 33 17.3 3.8 29.3 10.9 29.3 19.2q0 2.7-1.6 5.2l41.6-.2V662.7l-55-20.2-.1 231c16 6.7 30.2 7.8 30.1-8.5 0-10.1-10-10-10-5 0 7.5-10 7.5-10 0 0-32.7 40-20 40 0 0 50-85 27.6-95 15-4.2 5.3-21.7 12.3-40.5 15l-4.2.5c-24.8 2.6-50.3-3.1-50.3-30.5 0-20 40-32.7 40 0 0 7.5-10 7.5-10 0 0-5-10-5.1-10 5-.1 16.1 13.7 15.3 29.8 8.6l.2-264.4Zm112.9 328.3-6.2.8q3.2-.3 6.2-.8M460.2 718.6l-.3 241.4h90.8l24.6-30.7c-22.6-93.2-62.2-162-115.1-210.7m362.2 5.3a10 10 0 0 0-10 10 10 10 0 0 0 10 10 10 10 0 0 0 10-10 10 10 0 0 0-10-10M620 735a10 10 0 0 0-10 10 10 10 0 0 0 10 10 10 10 0 0 0 10-10 10 10 0 0 0-10-10m48 3.3a10 10 0 0 0-10 10 10 10 0 0 0 10 10 10 10 0 0 0 10-10 10 10 0 0 0-10-10m109.6 1.2a10 10 0 0 0-10 10 10 10 0 0 0 10 10 10 10 0 0 0 10-10 10 10 0 0 0-10-10M701 754.7a10 10 0 0 0-10 10 10 10 0 0 0 10 10 10 10 0 0 0 10-10 10 10 0 0 0-10-10m45.1 2a10 10 0 0 0-10 10 10 10 0 0 0 10 10 10 10 0 0 0 10-10 10 10 0 0 0-10-10M52.5 772.6A7.5 7.5 0 0 0 45 780a7.5 7.5 0 0 0 7.5 7.5A7.5 7.5 0 0 0 60 780a7.5 7.5 0 0 0-7.5-7.5m430 10a12.5 12.5 0 1 1 0 25 12.5 12.5 0 0 1 0-25m144.9 3.4a10 10 0 0 0-10 10 10 10 0 0 0 10 10 10 10 0 0 0 10-10 10 10 0 0 0-10-10m154.8 2.9a10 10 0 0 0-10 10 10 10 0 0 0 10 10 10 10 0 0 0 10-10 10 10 0 0 0-10-10m-111.7.8a10 10 0 0 0-10 10 10 10 0 0 0 10 10 10 10 0 0 0 10-10 10 10 0 0 0-10-10m-633 .4a7.5 7.5 0 0 0-7.5 7.5 7.5 7.5 0 0 0 7.5 7.5 7.5 7.5 0 0 0 7.5-7.5 7.5 7.5 0 0 0-7.5-7.5m35 2.5A7.5 7.5 0 0 0 65 800a7.5 7.5 0 0 0 7.5 7.5A7.5 7.5 0 0 0 80 800a7.5 7.5 0 0 0-7.5-7.5M55 805l-25 75 15-15 10 30 5-30 10 15zm648.3 1a10 10 0 0 0-10 10 10 10 0 0 0 10 10 10 10 0 0 0 10-10 10 10 0 0 0-10-10m47.2 0a10 10 0 0 0-10 10 10 10 0 0 0 10 10 10 10 0 0 0 10-10 10 10 0 0 0-10-10m-373.9 9 2.8 47.2a642 642 0 0 1 48.7 7 125 125 0 0 0-51.4-54.2m-122.2.4a125 125 0 0 0-54.4 61.8 579 579 0 0 1 54.3-11.5zm268 12.1a12.5 12.5 0 1 1 0 25 12.5 12.5 0 0 1 0-25m110.2 13a10 10 0 0 0-10 10 10 10 0 0 0 10 10 10 10 0 0 0 10-10 10 10 0 0 0-10-10m43.1 3.3a10 10 0 0 0-10 10 10 10 0 0 0 10 10 10 10 0 0 0 10-10 10 10 0 0 0-10-10m108.8 2.5a10 10 0 0 0-10 10 10 10 0 0 0 10 10 10 10 0 0 0 10-10 10 10 0 0 0-10-10m-76 14a10 10 0 0 0-10 10 10 10 0 0 0 10 10 10 10 0 0 0 10-10 10 10 0 0 0-10-10m44.4 3.2a10 10 0 0 0-10 10 10 10 0 0 0 10 10 10 10 0 0 0 10-10 10 10 0 0 0-10-10M315 865a15 15 0 0 0-15 15 15 15 0 0 0 15 15 15 15 0 0 0 15-15 15 15 0 0 0-15-15m167.5 2.5a12.5 12.5 0 1 1 0 25 12.5 12.5 0 0 1 0-25M312 869.9a6 6 0 0 1 6 6.1 6 6 0 0 1-6 6 6 6 0 0 1-6-6 6 6 0 0 1 6-6m478 22.6a10 10 0 0 0-10 10 10 10 0 0 0 10 10 10 10 0 0 0 10-10 10 10 0 0 0-10-10m-111.7 6.6a10 10 0 0 0-9.1 5.9l19 4.8.1-.7a10 10 0 0 0-10-10M537.5 905a12.5 12.5 0 1 1 0 25 12.5 12.5 0 0 1 0-25m220.8 4.9a10 10 0 0 0-10 10 10 10 0 0 0 10 10 10 10 0 0 0 10-10 10 10 0 0 0-10-10M265 910a15 15 0 0 0-15 15 15 15 0 0 0 15 15 15 15 0 0 0 15-15 15 15 0 0 0-15-15m100 0a15 15 0 0 0-15 15 15 15 0 0 0 15 15 15 15 0 0 0 15-15 15 15 0 0 0-15-15m-3.4 5a6 6 0 0 1 6 6 6 6 0 0 1-6 6 6 6 0 0 1-6-6 6 6 0 0 1 6-6M261 915a6 6 0 0 1 6 6 6 6 0 0 1-6 6.2 6 6 0 0 1-6-6.1 6 6 0 0 1 6-6.1m450.1.6a10 10 0 0 0-5.6 1.8l15.5 10 .1-1.8a10 10 0 0 0-10-10m-385.5 69.8c-33.9.2-68 5-108.6 14.9 22.6 29.8 58.5 49 98.9 49A124 124 0 0 0 418.7 995a461 461 0 0 0-93.1-9.6"/></symbol><symbol id="c" preserveAspectRatio="none" viewBox="0 0 1300 2000"><path fill="red" d="M330 835a15 15 0 0 1-15 15 15 15 0 0 1-15-15 15 15 0 0 1 15-15 15 15 0 0 1 15 15m0 90a15 15 0 0 1-15 15 15 15 0 0 1-15-15 15 15 0 0 1 15-15 15 15 0 0 1 15 15m-95 10a15 15 0 0 1-15 15 15 15 0 0 1-15-15 15 15 0 0 1 15-15 15 15 0 0 1 15 15m190-5a15 15 0 0 1-15 15 15 15 0 0 1-15-15 15 15 0 0 1 15-15 15 15 0 0 1 15 15m-285.2 15.3a111 111 0 0 1 23.2 15l33.2-.1a122 122 0 0 1-5.3-36 125 125 0 0 1 94-121h.3v-.7c0-7.8 3.7-14.9 9.5-19.7-1.1-6.3-5.3-26.9-14.7-27.8-19-1.9-18 53.6-35 45-21.6-11-4-66 20-70 24.4-4 35.2 33.7 38.3 48l.8-.9A290 290 0 0 0 290 700l25-30 25 30a289 289 0 0 0-14 76.5l.8.7C330.2 762.5 341 726 365 730s41.6 59 20 70c-17 8.6-16-46.9-35-45-8.7.9-13 19-14.7 26.3a26 26 0 0 1 11.2 21.2q-.1.2.4.7a125 125 0 0 1 88.8 156.6l24.6.2V718.7c-67.1-62-156-91.6-258.1-97.7a919 919 0 0 0-62.3 38.4L140 940Zm460.3 54.7a20 20 0 0 1-20 20 20 20 0 0 1-20-20 20 20 0 0 1 20-20 20 20 0 0 1 20 20m69.9-55.8a20 20 0 0 1-20 20 20 20 0 0 1-20-20 20 20 0 0 1 20-20 20 20 0 0 1 20 20m-177.7 30.3a1013 1013 0 0 1 1.1 50.8l53.5-.4a71 71 0 0 1 .1-50.3m402.5-19a126 126 0 0 0-85.5 84.3h-38.4c-9.3-175.2 7.1-342 153.6-494.6l96 35.1c-107 118-131.3 241.8-125.7 375.2m-80.3-419.8 55.2 2.5-204.8 98.6-167.2-75.2a32 32 0 0 0 12-6.8C585 580 615 560 615 535c10 30 15 40 39.6 44 28.3-1.2 56.3-3 77.8-14.4 16 7 33.7 5 42.2-4 29.6 4.6 64.7-12 69.9-23.8a62 62 0 0 0 24.7-1M385 83.8a108 108 0 0 0 36.4 17.2c3.3 10.6 6.9 23 14.4 36.8 3.7 6.8 8.7 13.4 14 19.6a1888 1888 0 0 1 161.4-12.3c11-14.4 19.1-32.1 23-52.7A80 80 0 0 0 659 74.8a80 80 0 0 0 23.6 19 137 137 0 0 0 17 50.5 1687 1687 0 0 1 182.3 13l3.3-3.6c13.5-15.6 21-36.2 23-60.2a243 243 0 0 0 61.2-21c-37.4 57.4-54 93.1-66.4 128a1807 1807 0 0 0-457-2.3 888 888 0 0 0-61-114.4"/></symbol><symbol id="b" preserveAspectRatio="none" viewBox="0 0 1300 2000"><path fill="#fc4" d="M315.9 799.3a122 122 0 0 0-36.1 5.3q-.7 41.7-.4 82.8a444 444 0 0 0-87.1 18.7 121 121 0 0 0-1.4 18.2c0 19.4 4.4 37.7 12.4 53.8 85.7-21.8 147.4-22.5 228-6a121 121 0 0 0 9.6-47.8q0-14.2-3.1-27.3-42.9-9.4-82.3-11.6a2841 2841 0 0 0-4.7-81.1q-16.5-5-35-5M315 865a15 15 0 0 1 15 15 15 15 0 0 1-15 15 15 15 0 0 1-15-15 15 15 0 0 1 15-15m-50 45a15 15 0 0 1 15 15 15 15 0 0 1-15 15 15 15 0 0 1-15-15 15 15 0 0 1 15-15m100 0a15 15 0 0 1 15 15 15 15 0 0 1-15 15 15 15 0 0 1-15-15 15 15 0 0 1 15-15m-79.8-106.8a30.7 27.5 0 0 1 0-.7A30.7 27.5 0 0 1 316 775a30.7 27.5 0 0 1 30.6 27.5 30.7 27.5 0 0 1 0 .7M303.3 778c-3.1-14.3-13.9-52-38.3-48-24 4-41.6 59-20 70 17 8.6 16-46.9 35-45 9.4 1 13.6 21.5 14.7 28m31.2-6.5c1.5-26 5.7-51.7 14.1-76.5l-25-30-25 30a290 290 0 0 1 14.1 77.1m31.5 4.5c1.4-7.7 5.7-25.7 14.4-26.6 19-1.9 18 53.6 35 45 21.6-11 4-66-20-70s-34.8 32.5-38.2 47.3m365.3 188.6c16.9-40-11.9-60-42.1-60.7-30.2.6-59 20.6-42 60.7-45-34.5-65.4 2.3-65.7 34.1.3 31.8 20.7 68.6 65.7 34-17 40.2 11.8 60.2 42 60.8 30.2-.6 59-20.6 42-60.7 45 34.5 65.4-2.3 65.7-34.1-.3-31.8-20.7-68.6-65.7-34m57.7-5.7 56.5-.4c.8-109.5 18.2-216.8 78.3-319l-163.9 78.7-154.5-69.4a808 808 0 0 0-33-84.7l-34.4-2.6c41.3 84 67.2 185.9 87.8 299.4-30.2-83.7-76.7-146.8-136-190.5-57-42.2-124.9-66-198.7-76.4a778 778 0 0 0-49.7 25.7c182 10.6 321.3 95.8 372.7 308.3 60.2-39.4 136.2-35.7 175 31m-140-137.2.4 2zm3.3 17.4.6 3zm2.7 14.6 1 5.8zm599.1 199.7a25 25 0 0 1 10.1 20.1 25 25 0 0 1-25 25 25 25 0 0 1-25-25 25 25 0 0 1 14.3-22.6m70.7-17.4a47.5 20 0 0 1-47.5 20 47.5 20 0 0 1-47.5-20 47.5 20 0 0 1 47.5-20 47.5 20 0 0 1 47.5 20m-155-175c0-20 40-32.7 40 0 0 7.5-10 7.5-10 0 0-5-10-5.1-10 5-.2 35 65-10 75-20 10 10 75.3 55 75 20 0-10.1-10-10-10-5 0 7.5-10 7.5-10 0 0-32.7 40-20 40 0 0 50-85 27.6-95 15-10 12.6-95 35-95-15M961.5 538.9l-37.1-.6-204.8 98.6-166.9-75.4q-6.2 2.1-17.7 3.5l9.2 25.9L720 670l218.7-105.4a597 597 0 0 1 22.8-25.7M331 0c45.6 68 75 115.9 97.2 160a1814 1814 0 0 1 490.9 1.2c17.9-38.8 46-85.8 100.6-161.2Zm475.4 960H748l6.2 15h51.3zM552 960h-59.4l-.1 15h52.4z"/></symbol><path id="i" d="M-72.4-111.4H72.4v222.8H-72.4z"/></defs><rect width="211" height="328" x="-105.5" y="-164" fill="#fff" stroke="#000" stroke-width="2" rx="12" ry="12"/><use width="144.8" height="222.8" x="-72.4" y="-111.4" href="#b"/><use width="144.8" height="222.8" x="-72.4" y="-111.4" href="#b" transform="rotate(180)"/><use width="144.8" height="222.8" x="-72.4" y="-111.4" href="#c"/><use width="144.8" height="222.8" x="-72.4" y="-111.4" href="#c" transform="rotate(180)"/><use width="144.8" height="222.8" x="-72.4" y="-111.4" href="#d"/><use width="144.8" height="222.8" x="-72.4" y="-111.4" href="#d" transform="rotate(180)"/><use width="144.8" height="222.8" x="-72.4" y="-111.4" href="#e"/><use width="144.8" height="222.8" x="-72.4" y="-111.4" href="#e" transform="rotate(180)"/><use width="144.8" height="222.8" x="-72.4" y="-111.4" href="#f"/><use width="144.8" height="222.8" x="-72.4" y="-111.4" href="#f" transform="rotate(180)"/><use width="144.8" height="222.8" x="-72.4" y="-111.4" href="#g"/><use width="144.8" height="222.8" x="-72.4" y="-111.4" href="#g" transform="rotate(180)"/><use width="32" height="32" x="-100.4" y="-152.5" href="#h"/><use width="26.8" height="26.8" x="-97.8" y="-115.5" href="#a"/><use width="48.7" height="48.7" x="-75.8" y="-113.4" href="#a"/><g transform="rotate(180)"><use width="32" height="32" x="-100.4" y="-152.5" href="#h"/><use width="26.8" height="26.8" x="-97.8" y="-115.5" href="#a"/><use width="48.7" height="48.7" x="-75.8" y="-113.4" href="#a"/></g><use fill="none" stroke="#44f" href="#i"/></svg>